<svg width="57" height="65" viewBox="0 0 57 65" fill="none" xmlns="http://www.w3.org/2000/svg">
<path d="M0 63.5H49" stroke="black" stroke-width="2"/>
<path d="M9.25781 48.625V60H7.10938V48.625H9.25781ZM16.0312 48.625L11.5391 55.2031H8.71875L8.4375 53.3125H10.375L13.4141 48.625H16.0312ZM13.8203 60L10.3906 54.8594L11.8359 53.2734L16.3906 60H13.8203ZM17.3438 58.9922C17.3438 58.6797 17.4505 58.4167 17.6641 58.2031C17.8776 57.9896 18.1667 57.8828 18.5312 57.8828C18.8958 57.8828 19.1849 57.9896 19.3984 58.2031C19.612 58.4167 19.7188 58.6797 19.7188 58.9922C19.7188 59.2995 19.612 59.5599 19.3984 59.7734C19.1849 59.9818 18.8958 60.0859 18.5312 60.0859C18.1667 60.0859 17.8776 59.9818 17.6641 59.7734C17.4505 59.5599 17.3438 59.2995 17.3438 58.9922ZM26.3359 55.8516H23.4062V54.1641H26.3359C26.8151 54.1641 27.2031 54.0859 27.5 53.9297C27.8021 53.7682 28.0234 53.5495 28.1641 53.2734C28.3047 52.9922 28.375 52.6719 28.375 52.3125C28.375 51.9635 28.3047 51.638 28.1641 51.3359C28.0234 51.0339 27.8021 50.7891 27.5 50.6016C27.2031 50.4141 26.8151 50.3203 26.3359 50.3203H24.1094V60H21.9609V48.625H26.3359C27.2214 48.625 27.9766 48.7839 28.6016 49.1016C29.2318 49.4141 29.7109 49.849 30.0391 50.4062C30.3724 50.9583 30.5391 51.5885 30.5391 52.2969C30.5391 53.0312 30.3724 53.6641 30.0391 54.1953C29.7109 54.7266 29.2318 55.1354 28.6016 55.4219C27.9766 55.7083 27.2214 55.8516 26.3359 55.8516ZM36.4297 49.6719H38.8125C39.4896 49.6719 40.112 49.7839 40.6797 50.0078C41.2474 50.2318 41.7422 50.5495 42.1641 50.9609C42.5911 51.3724 42.9219 51.8646 43.1562 52.4375C43.3906 53.0104 43.5078 53.651 43.5078 54.3594C43.5078 55.0521 43.3906 55.6823 43.1562 56.25C42.9219 56.8177 42.5911 57.3073 42.1641 57.7188C41.7422 58.125 41.2474 58.4375 40.6797 58.6562C40.112 58.875 39.4896 58.9844 38.8125 58.9844H36.4297C35.7526 58.9844 35.1276 58.875 34.5547 58.6562C33.987 58.4375 33.4896 58.125 33.0625 57.7188C32.6406 57.3125 32.3125 56.8281 32.0781 56.2656C31.8438 55.6979 31.7266 55.0677 31.7266 54.375C31.7266 53.6667 31.8438 53.026 32.0781 52.4531C32.3125 51.8802 32.6406 51.3854 33.0625 50.9688C33.4896 50.5521 33.987 50.2318 34.5547 50.0078C35.1276 49.7839 35.7526 49.6719 36.4297 49.6719ZM36.4297 51.3906C35.888 51.3906 35.4167 51.5078 35.0156 51.7422C34.6146 51.9766 34.3047 52.3151 34.0859 52.7578C33.8672 53.2005 33.7578 53.7396 33.7578 54.375C33.7578 54.8385 33.8203 55.25 33.9453 55.6094C34.0755 55.9688 34.2578 56.2708 34.4922 56.5156C34.7266 56.7604 35.0078 56.9479 35.3359 57.0781C35.6641 57.2031 36.0286 57.2656 36.4297 57.2656H38.8281C39.3646 57.2656 39.8281 57.151 40.2188 56.9219C40.6146 56.6927 40.9219 56.362 41.1406 55.9297C41.3594 55.4922 41.4688 54.9688 41.4688 54.3594C41.4688 53.8854 41.4062 53.4661 41.2812 53.1016C41.1562 52.7318 40.9792 52.4193 40.75 52.1641C40.5208 51.9089 40.2422 51.7161 39.9141 51.5859C39.5911 51.4557 39.2292 51.3906 38.8281 51.3906H36.4297ZM38.6562 48.1562V60.4688H36.5938V48.1562H38.6562Z" fill="black"/>
<line x1="3.76777" y1="18.2322" x2="22.7678" y2="37.2322" stroke="black" stroke-width="5"/>
<line x1="54.9327" y1="1.58579" x2="22.9327" y2="40.5858" stroke="black" stroke-width="5"/>
</svg>
